P2
# CREATOR: XV Version 3.10a  Rev: 12/29/94 (PNG patch 1.2)
48 36
255
32 134 123 115 111 104 102 41 69 80 45 46 48 47 50 52 56 60 64 72 79 100 253 
253 253 253 140 121 104 98 93 91 89 83 82 83 81 82 94 92 86 76 42 99 109 109 
109 116 32 149 130 125 113 106 106 57 46 80 64 46 49 47 49 53 54 57 62 70 120 
123 140 146 147 144 94 77 97 93 91 88 87 85 84 84 81 77 92 88 81 63 41 110 113 
113 117 117 32 161 146 132 121 116 108 112 39 80 99 50 54 71 82 95 103 108 114 
114 130 130 133 137 137 136 78 72 99 96 93 90 88 83 84 87 83 49 52 52 51 41 112 
114 117 116 122 120 32 173 162 145 131 123 115 111 61 66 94 105 110 115 120 
119 120 121 122 124 123 124 131 133 131 131 85 81 99 96 93 93 90 86 86 86 85 
105 108 105 42 50 114 116 116 127 119 115 32 178 175 154 139 126 119 117 114 
42 85 102 110 113 117 118 118 121 124 126 128 130 129 130 131 130 110 111 98 
96 93 96 91 91 86 88 106 108 104 93 39 114 120 119 123 126 117 117 32 180 179 
172 151 134 126 120 117 56 68 97 108 112 114 120 121 124 124 126 125 126 128 
129 130 124 70 84 95 95 93 95 94 93 91 90 106 107 96 49 101 119 120 129 129 
121 120 122 32 185 181 177 164 148 131 123 117 106 45 46 49 51 49 110 115 121 
127 124 125 129 125 126 126 126 124 101 99 96 95 94 94 94 93 84 70 69 61 45 120 
122 130 129 128 124 125 127 32 183 183 185 173 153 139 125 118 112 63 45 48 46 
47 75 93 100 110 115 121 119 118 120 120 121 119 113 122 119 115 109 108 100 
81 41 45 39 41 114 119 126 132 127 124 124 127 127 32 189 186 187 179 161 143 
131 120 116 108 41 45 50 50 48 50 51 52 53 59 61 60 61 68 70 76 87 90 91 93 57 
89 66 47 44 45 43 36 123 128 132 128 126 126 128 130 128 32 185 187 185 180 
167 152 139 130 117 112 67 46 48 55 52 53 53 54 54 55 57 56 51 55 55 56 53 51 
49 48 55 45 43 43 44 71 46 113 126 127 130 127 126 128 132 130 123 32 188 185 
185 182 162 157 145 138 127 121 102 117 118 122 127 135 140 142 147 148 151 
154 154 155 155 158 158 155 151 146 144 141 130 118 103 75 103 124 129 131 126 
127 129 129 129 112 93 32 165 184 191 183 151 141 154 145 136 126 116 130 126 
133 140 140 147 149 157 161 165 165 163 164 169 167 165 164 163 158 156 154 
149 141 142 150 105 141 143 131 130 132 137 133 107 100 96 32 165 164 181 183 
146 147 160 152 147 139 146 154 148 147 145 151 155 160 165 169 172 178 177 
182 178 180 173 175 174 169 163 164 158 162 170 189 90 143 138 136 135 138 139 
137 106 100 93 32 160 155 161 186 147 144 167 155 151 140 169 173 160 156 154 
159 164 167 169 176 184 189 190 193 193 192 190 183 182 175 189 191 185 196 
203 223 146 150 145 139 139 137 140 109 107 96 103 32 155 149 157 169 145 147 
173 164 156 138 185 183 173 168 171 176 173 175 182 196 208 221 224 226 232 
232 226 218 208 207 203 203 210 210 217 226 204 150 155 146 143 143 110 109 
106 96 96 32 147 150 155 152 152 159 176 171 162 120 191 192 186 183 183 180 
186 188 193 195 208 214 223 229 225 222 215 205 202 202 201 207 213 218 226 
232 227 156 151 146 146 114 114 107 110 98 97 32 149 154 155 150 145 159 174 
170 164 128 194 196 194 193 192 194 196 201 202 214 225 238 250 253 253 248 
243 235 231 213 217 221 218 221 233 231 217 149 156 149 135 116 112 109 110 
97 94 32 150 156 153 155 154 154 150 174 163 153 194 202 201 205 205 209 206 
221 228 222 235 253 253 253 253 253 242 231 222 217 215 213 214 217 219 220 
212 146 153 130 119 116 111 111 101 99 97 32 162 152 160 153 148 145 153 158 
163 174 196 196 202 201 205 206 212 216 222 227 243 253 253 253 253 253 252 
235 227 222 219 216 217 217 217 215 212 147 131 125 116 115 113 105 107 103 
99 32 152 142 149 157 145 146 143 149 140 173 193 196 201 200 203 204 214 216 
219 231 247 253 253 253 253 253 251 239 229 221 223 221 217 212 217 206 204 
135 133 124 121 112 108 107 104 97 95 32 145 144 149 158 147 137 133 135 117 
147 151 181 182 169 169 169 164 169 176 173 192 218 253 253 217 253 215 218 
211 225 222 215 216 208 202 196 175 117 126 117 117 115 108 103 104 98 94 32 
145 144 146 143 141 138 137 126 112 137 144 152 160 161 163 157 161 159 161 
145 157 177 178 170 172 180 162 149 155 148 167 162 162 155 158 157 151 99 111 
109 112 112 110 100 98 97 98 32 140 142 142 139 138 140 133 124 105 133 138 
139 140 141 137 136 134 137 135 136 151 143 141 142 168 158 159 162 167 158 
157 169 162 159 154 152 149 86 110 108 109 110 111 98 95 90 91 32 137 138 139 
137 140 138 137 128 105 131 139 136 140 141 143 146 147 134 137 131 134 133 
133 134 133 141 151 143 148 140 147 154 157 145 148 146 137 83 108 110 114 108 
113 107 94 92 90 32 134 134 137 137 136 136 135 129 101 137 144 146 145 151 
150 149 153 150 155 150 150 150 148 144 138 138 137 161 159 168 149 172 166 
153 158 151 146 80 112 115 111 107 104 101 101 87 88 32 131 131 132 129 132 
134 131 127 102 138 144 146 150 148 151 157 153 157 159 157 158 167 162 163 
157 159 160 158 153 151 150 148 152 150 149 146 140 85 115 117 110 97 98 98 92 
83 85 32 130 129 131 129 130 129 129 124 103 133 141 141 146 149 150 153 154 
156 157 160 162 162 165 162 163 164 163 160 157 157 155 155 154 152 152 148 
144 95 116 117 109 101 96 92 89 88 85 32 124 126 126 128 126 125 126 118 106 
129 135 141 142 144 145 147 151 154 151 157 159 159 158 158 159 161 162 155 
156 157 155 156 150 150 151 148 141 99 110 111 104 97 99 103 101 94 86 32 118 
116 119 121 122 120 118 110 103 121 129 134 135 138 140 144 142 145 147 148 
153 151 154 154 156 156 155 154 150 149 150 149 151 145 147 140 137 93 107 107 
105 100 95 91 94 88 88 32 73 87 103 111 112 114 110 101 100 117 122 128 132 
132 135 138 140 141 144 145 148 148 149 147 150 149 149 151 147 147 144 142 
142 140 136 130 124 87 104 105 104 95 90 93 93 84 80 32 34 68 68 59 40 53 47 
41 46 42 46 72 102 119 128 130 131 136 139 139 138 140 143 141 140 143 144 143 
145 140 138 140 136 133 129 122 116 75 86 87 86 83 77 76 75 68 69 32 38 57 66 
49 41 60 54 32 74 71 39 93 99 114 110 86 46 55 54 51 52 53 50 52 52 53 53 54 
53 49 51 48 48 43 43 44 47 37 45 51 46 42 41 42 41 36 40 32 60 50 64 45 46 62 
46 42 63 69 37 94 94 110 97 77 42 117 104 105 107 103 51 100 103 103 107 108 
87 56 120 115 114 103 69 49 109 98 37 94 90 38 79 75 68 33 77 32 37 37 33 50 
62 53 71 57 72 70 88 81 64 48 44 46 40 59 76 84 95 65 49 103 84 105 105 96 71 
46 67 112 126 111 65 37 59 49 38 84 84 31 110 92 44 35 83 32 51 50 58 55 46 43 
68 55 55 39 41 45 88 75 79 49 96 100 95 86 99 100 98 99 97 96 94 77 93 63 62 
107 106 98 108 94 101 33 72 80 63 41 39 63 42 42 64 32 68 71 73 74 75 60 66 47 
87 37 42 67 87 77 84 91 95 100 97 95 96 97 98 100 101 100 105 101 98 62 60 98 
98 67 38 45 42 42 64 51 70 63 56 55 44 38 50 
