P2
# CREATOR: XV Version 3.10a  Rev: 12/29/94 (PNG patch 1.2)
48 36
255
32 143 133 124 118 113 108 42 69 88 44 46 49 49 58 59 64 64 69 80 86 105 253 
253 253 253 147 131 111 105 102 99 94 90 90 87 84 85 100 99 88 77 41 105 119 
121 117 124 32 161 142 131 124 117 114 63 49 82 66 47 50 53 54 60 63 63 66 77 
129 135 146 155 160 154 101 85 106 97 94 94 90 89 88 88 90 88 97 91 82 68 41 
118 121 122 127 127 32 176 158 144 134 123 118 116 41 83 102 51 56 72 88 99 108 
115 121 119 135 139 142 142 142 144 87 74 104 102 97 97 93 91 90 90 87 49 50 
50 53 43 121 120 124 123 130 125 32 186 178 156 145 131 125 118 63 69 97 109 
113 121 120 124 128 124 127 130 130 127 139 138 141 139 90 86 106 98 100 96 97 
94 92 90 91 111 110 103 42 50 125 126 126 132 129 124 32 197 195 169 151 141 
128 120 121 45 89 105 115 119 123 126 124 130 128 132 134 136 139 138 140 133 
113 114 103 103 100 95 96 95 94 92 112 112 111 92 42 121 130 130 132 134 128 
128 32 202 196 188 162 146 136 128 123 56 76 104 113 117 117 122 128 131 132 
133 135 137 140 134 136 136 73 90 101 100 103 100 97 96 94 93 108 107 98 49 109 
127 129 137 139 131 129 131 32 201 201 194 183 158 143 132 125 123 46 48 53 51 
52 115 122 124 134 129 133 132 133 130 135 134 131 107 105 103 103 101 101 97 
97 91 77 75 58 71 49 83 107 140 136 133 134 134 32 204 200 200 190 167 147 137 
126 122 68 44 50 48 51 79 99 102 117 122 123 125 126 125 127 128 127 121 127 
125 119 113 114 106 83 45 43 41 70 43 40 38 40 133 135 137 137 140 32 208 206 
206 194 178 158 144 130 120 114 48 49 51 50 47 52 55 55 57 60 64 60 64 71 76 
82 91 95 97 96 58 93 67 45 43 45 57 62 44 39 39 35 132 138 139 143 140 32 207 
206 203 197 187 168 113 59 66 64 71 50 52 58 53 57 56 55 59 59 57 59 57 58 59 
54 60 57 53 52 57 47 47 45 48 77 53 93 61 49 43 106 137 138 143 140 130 32 205 
205 206 203 181 176 43 38 56 76 83 126 129 133 140 146 151 160 161 164 168 169 
171 166 171 171 171 168 166 162 160 152 140 128 110 79 100 111 77 108 73 122 
139 142 143 118 99 32 183 202 208 202 161 124 51 56 54 74 107 142 138 143 146 
153 160 166 174 176 179 182 182 183 184 186 185 179 177 176 171 167 160 159 
157 163 130 76 62 55 45 39 46 133 112 106 103 32 181 179 197 208 155 116 80 67 
61 145 160 167 160 157 159 167 171 178 182 186 188 191 189 197 195 200 194 188 
189 186 178 178 175 176 185 224 177 106 96 105 78 65 51 46 78 105 99 32 176 
169 179 206 162 157 67 62 58 66 185 190 175 170 171 175 182 181 186 196 201 
203 205 214 210 211 206 202 200 194 207 210 203 217 222 141 72 66 81 91 74 69 
68 76 71 90 106 32 171 164 146 100 62 79 60 61 58 150 205 203 193 185 188 192 
191 192 202 213 229 237 243 246 249 250 244 239 229 223 222 223 230 232 235 
75 51 40 40 42 41 68 68 69 68 70 104 32 160 130 54 56 56 47 54 63 128 129 210 
209 205 198 198 203 205 208 212 216 65 74 78 248 245 243 233 225 221 222 216 
221 234 238 243 95 52 44 42 41 39 41 41 41 41 55 91 32 164 56 49 50 56 46 44 
46 106 123 212 216 215 210 210 213 211 217 223 226 102 97 72 253 253 253 253 
253 251 233 239 241 240 240 250 140 81 58 45 42 43 40 40 42 40 34 91 32 139 
48 43 45 54 50 48 58 92 94 208 221 221 223 226 233 225 243 245 242 73 77 88 253 
253 253 253 250 238 241 236 233 234 238 239 134 85 59 53 54 57 54 56 52 53 41 
67 32 77 45 38 45 47 56 65 87 143 75 191 215 222 225 221 224 230 234 239 244 
84 62 252 253 253 253 253 251 248 240 238 236 234 240 235 127 83 59 51 55 57 
56 56 56 56 46 58 32 48 47 39 42 48 48 66 81 93 56 202 221 216 217 222 226 232 
233 237 249 104 67 59 253 253 253 253 253 250 245 240 239 234 231 229 134 68 
58 68 66 58 50 55 53 55 46 65 32 50 41 39 45 41 47 52 56 79 55 158 196 200 185 
186 187 177 181 191 186 58 94 87 112 63 253 234 240 231 248 241 236 234 228 
220 114 83 64 40 40 42 39 41 38 40 47 48 32 49 88 40 42 39 47 71 88 96 51 156 
162 174 176 174 173 172 173 187 57 62 68 70 77 58 215 171 157 169 167 182 173 
174 170 175 45 41 45 41 38 40 40 38 37 39 35 47 32 43 47 44 44 44 46 51 55 60 
62 146 147 150 151 151 149 144 143 99 48 87 94 68 47 65 134 171 176 178 169 
171 185 173 169 72 46 42 42 37 39 39 37 37 38 36 37 54 32 55 48 50 49 41 47 49 
56 61 93 144 146 150 154 153 157 157 144 60 52 69 49 47 50 42 32 161 153 159 
153 157 167 171 153 82 45 41 43 44 56 56 56 52 51 51 51 63 32 93 46 40 50 51 
80 94 89 66 73 153 160 158 160 162 166 162 166 34 55 70 47 59 48 43 45 146 173 
172 180 166 185 175 168 99 83 68 53 58 59 44 37 37 37 37 37 81 32 133 43 49 60 
52 47 70 67 55 111 156 157 161 164 165 165 164 172 52 60 61 64 58 42 41 43 173 
168 165 163 159 159 163 161 76 55 57 52 38 37 36 38 37 36 34 39 91 32 140 69 
54 42 46 57 77 52 86 135 152 156 154 161 162 165 166 167 50 49 45 66 54 43 39 
44 173 174 170 167 167 166 170 169 69 55 41 40 36 35 36 33 34 36 33 35 86 32 
132 69 63 50 39 43 40 69 110 138 146 149 152 157 159 162 161 164 44 50 67 76 
62 64 45 44 181 168 169 173 168 167 165 146 68 55 38 40 38 36 38 35 34 32 34 
36 89 32 124 60 47 51 47 42 47 83 99 133 138 143 147 148 151 153 155 160 45 45 
49 51 38 39 44 46 169 167 165 161 161 157 162 160 53 62 37 37 39 35 35 35 34 
35 35 37 91 32 59 49 48 49 42 45 42 59 89 122 130 137 141 143 146 146 149 157 
49 112 43 44 43 46 31 42 162 162 160 157 157 154 150 152 57 45 38 36 36 35 35 
33 36 32 33 34 84 32 49 54 49 49 40 43 43 61 51 46 46 78 107 129 134 142 142 
69 31 160 42 51 53 62 30 57 153 154 151 151 151 147 144 147 93 39 38 37 38 38 
33 33 34 33 34 32 70 32 47 52 62 60 42 42 44 55 81 78 40 103 101 119 116 99 48 
56 64 50 46 43 59 57 50 54 53 55 53 53 50 47 45 43 59 35 38 36 32 34 34 32 32 
32 32 32 42 32 61 52 63 61 43 41 49 57 67 79 42 99 101 122 106 83 45 126 114 
111 46 44 52 58 72 114 114 119 96 57 126 124 121 112 77 38 37 34 36 34 34 32 
32 32 32 33 88 32 46 50 62 61 39 40 46 62 78 79 95 84 69 50 49 47 44 63 80 94 
49 39 59 57 87 112 111 96 79 49 76 115 135 122 73 36 37 34 34 34 97 34 32 33 
32 32 89 32 48 44 68 65 41 43 45 69 60 42 41 53 98 81 85 46 102 109 106 91 46 
44 52 52 103 102 101 84 99 69 65 109 110 103 114 34 32 33 33 42 53 32 32 33 32 
42 67 32 48 54 53 68 40 45 50 52 91 42 43 68 93 88 91 97 105 106 104 102 47 41 
66 46 105 107 110 110 102 64 68 104 108 67 41 35 34 32 35 43 76 34 32 32 32 33 
49 
