P2
# CREATOR: GIMP PNM Filter Version 1.1
48 64
255
148
168
159
160
166
169
123
142
155
156
162
162
164
165
163
162
165
160
163
167
166
167
167
164
180
157
154
170
168
161
165
162
163
161
159
162
164
167
170
177
178
180
172
160
136
160
169
163
140
134
131
128
133
125
139
146
130
132
127
119
130
137
141
148
148
139
122
123
127
144
142
136
140
138
146
157
161
173
170
169
166
169
169
169
168
174
177
181
181
180
172
167
149
159
167
166
161
160
154
152
165
168
170
166
163
163
165
155
158
160
152
135
155
150
152
150
154
145
149
149
149
151
152
148
136
123
125
126
131
137
137
140
138
135
142
145
152
157
158
149
152
153
165
163
158
159
162
163
157
166
169
167
157
169
162
164
165
169
151
137
161
166
166
162
161
169
168
164
171
181
171
174
173
168
174
175
176
161
147
172
166
160
156
155
151
147
162
168
165
154
139
135
152
158
158
160
159
164
170
168
165
166
165
157
162
166
155
134
160
165
167
170
165
167
169
173
173
184
184
172
171
168
171
176
183
153
137
178
175
173
170
173
168
178
171
180
187
185
185
175
159
159
159
163
160
167
178
169
167
165
169
170
169
165
147
132
162
167
170
171
167
170
171
173
175
185
184
177
170
169
161
189
185
170
127
168
180
181
170
170
171
167
171
179
189
178
179
183
161
163
173
160
169
170
169
171
171
158
164
160
164
166
153
135
167
165
172
170
168
165
165
169
176
184
182
175
172
170
168
175
185
163
141
172
171
174
168
166
171
172
173
175
184
174
170
192
120
116
119
125
130
129
132
134
137
142
137
134
144
143
134
135
143
139
147
156
160
159
148
156
168
171
176
173
177
175
175
178
187
163
146
175
173
175
168
161
171
171
177
180
177
172
170
164
163
149
162
151
145
145
131
139
147
141
143
146
142
142
137
137
121
109
116
118
99
91
87
90
87
98
116
117
115
117
118
107
118
125
132
132
129
134
145
151
162
165
176
178
175
169
169
176
163
169
172
173
179
159
127
147
158
160
158
163
161
147
127
104
78
77
78
78
60
71
68
73
77
83
110
158
150
154
150
155
150
152
153
146
155
152
140
129
127
136
135
141
131
134
130
131
163
165
164
156
168
160
132
142
158
160
159
166
134
98
102
94
83
79
67
71
62
78
75
70
61
77
83
77
109
152
165
166
166
165
170
165
182
185
173
165
164
175
167
160
132
160
162
165
180
167
187
178
174
157
129
145
153
153
154
125
95
89
83
87
87
92
81
61
58
70
81
73
69
74
74
74
72
103
146
161
167
160
167
170
185
183
176
164
165
169
167
159
131
149
159
169
175
184
177
185
194
171
131
147
155
155
142
91
72
82
81
77
69
75
79
68
63
77
73
67
74
75
71
84
71
89
84
152
161
163
166
169
186
182
165
154
168
165
170
167
138
157
166
164
166
171
166
171
183
172
125
143
160
152
136
74
77
73
72
70
66
76
93
85
91
97
73
78
77
79
78
75
92
111
74
110
164
165
165
167
184
180
175
155
168
166
166
167
148
166
162
163
127
128
129
132
133
127
121
118
120
115
101
75
75
73
62
64
79
81
84
79
117
124
100
84
77
65
77
85
94
115
79
79
139
140
139
150
158
154
159
150
156
162
163
158
143
154
161
159
167
164
164
177
168
159
159
163
166
144
87
64
71
76
70
74
71
85
99
102
134
136
112
91
88
81
88
83
96
111
107
81
112
140
139
144
142
142
140
142
137
140
142
141
144
137
126
122
164
161
175
174
170
165
160
157
168
111
71
64
67
59
61
64
73
99
118
138
118
93
90
93
85
100
102
105
101
107
110
100
97
137
158
177
173
172
177
174
177
185
180
172
166
170
163
161
170
173
173
178
174
169
174
174
168
88
61
64
62
61
61
77
89
117
153
174
172
153
140
134
125
125
145
155
126
117
131
97
114
136
172
185
168
167
181
178
172
181
183
177
166
170
172
170
169
168
179
187
173
173
168
167
164
78
73
51
54
71
80
95
115
149
174
190
198
194
190
196
196
192
200
203
194
176
167
142
126
136
173
178
180
172
177
172
173
178
184
179
173
170
172
173
172
184
171
176
178
172
179
182
176
89
65
51
57
94
94
120
153
172
186
196
200
204
201
203
208
212
214
217
219
209
168
145
138
129
173
183
179
181
180
176
180
180
186
186
178
181
173
186
136
134
139
136
139
147
139
144
152
90
52
56
74
122
135
161
181
188
193
197
202
203
200
208
212
217
221
220
219
216
192
128
132
130
152
163
181
181
181
180
181
176
180
182
176
172
180
178
154
170
160
155
164
161
127
132
143
135
72
67
137
167
179
186
189
193
197
203
206
203
207
214
217
221
223
222
218
215
206
155
116
119
131
137
141
138
137
141
136
138
134
136
137
134
141
131
171
176
185
175
197
169
130
142
170
171
93
114
164
172
182
189
197
200
204
206
207
207
210
215
217
211
204
195
183
197
206
194
120
111
145
184
178
174
174
180
179
176
176
171
133
167
175
187
183
186
190
196
179
180
135
146
173
170
96
112
162
169
180
192
197
203
205
206
209
205
208
194
160
106
99
95
115
129
155
196
144
119
160
182
176
176
165
166
174
183
181
166
137
177
186
186
167
164
167
184
191
180
136
148
176
170
105
93
154
168
182
191
194
196
198
199
200
197
186
152
95
103
125
147
167
184
185
193
170
139
167
184
176
171
171
171
172
176
194
170
138
177
179
176
159
173
174
168
194
195
133
143
179
169
139
76
140
170
179
180
175
168
176
177
187
183
182
149
154
133
106
117
127
146
176
204
189
141
212
200
170
172
169
169
172
169
169
158
135
173
189
171
158
158
156
163
175
170
133
149
164
172
163
74
122
153
128
89
80
90
115
149
174
184
201
181
145
116
113
101
148
146
170
209
208
151
163
196
176
171
170
173
174
171
175
164
138
160
183
174
116
121
119
115
113
116
130
130
126
124
124
85
91
91
84
100
105
105
109
121
158
197
217
194
163
125
141
136
157
194
208
219
216
181
181
157
144
123
124
125
129
129
127
125
131
135
129
127
153
158
161
168
163
171
170
157
155
153
161
127
76
98
131
96
84
80
105
114
137
198
223
205
180
153
144
156
178
199
213
223
225
205
194
194
190
175
161
169
183
181
183
183
175
172
174
171
158
156
168
172
174
163
157
161
156
156
163
159
103
127
83
103
100
104
129
128
144
193
217
223
208
202
191
193
199
206
217
228
231
212
216
234
188
176
165
162
177
188
189
186
178
169
174
167
194
188
182
176
171
175
180
170
172
170
177
175
145
136
107
125
135
137
126
148
155
184
217
225
220
222
209
208
212
215
218
231
234
221
204
219
172
178
165
170
173
190
180
174
167
174
172
171
168
169
182
174
178
167
169
162
164
165
170
185
176
150
160
157
152
153
165
172
160
178
213
214
215
217
210
205
208
220
230
236
237
215
174
176
170
160
161
167
173
187
186
175
173
180
174
170
174
174
177
185
175
162
160
164
160
164
167
177
175
150
173
179
179
178
179
173
158
176
206
218
212
202
192
184
194
211
224
231
231
209
161
172
166
162
160
164
171
179
178
175
162
147
163
172
147
146
144
133
133
134
131
131
131
127
128
125
125
148
168
180
188
189
184
163
154
180
201
214
223
208
216
185
172
186
212
221
222
211
141
118
117
119
123
123
124
122
123
123
127
132
119
118
134
129
129
132
137
136
110
137
142
143
148
151
137
136
163
179
194
192
176
146
162
177
195
206
220
210
201
190
192
187
201
221
221
209
170
166
167
163
165
160
157
162
166
153
132
152
179
155
155
132
146
146
143
141
107
145
156
152
159
155
127
125
155
174
185
185
166
145
157
155
171
184
189
186
191
192
193
181
190
214
218
210
171
165
163
164
161
159
163
164
167
156
138
161
178
164
147
134
140
144
143
138
104
146
172
154
156
150
141
149
148
163
175
173
157
162
150
125
136
148
160
160
160
180
195
175
161
188
216
204
174
164
158
163
162
156
165
164
167
156
138
158
189
172
149
144
144
143
140
138
102
156
174
175
173
153
147
155
156
147
165
167
157
156
149
121
116
125
143
143
175
191
180
167
178
187
215
203
177
164
159
161
163
160
163
171
172
147
144
160
193
182
144
134
139
141
145
139
104
173
187
187
169
163
163
159
162
147
146
154
150
141
146
148
145
163
175
168
132
114
163
204
196
199
203
184
194
170
167
158
160
161
164
169
162
153
147
159
183
178
137
129
132
132
136
119
108
144
158
139
136
129
129
129
132
126
122
147
152
145
133
119
109
110
120
120
123
163
207
203
183
190
197
176
210
112
119
120
120
116
126
124
119
122
123
126
126
123
118
123
126
126
127
126
122
125
120
124
127
121
120
132
118
112
117
131
153
160
161
138
131
130
141
144
154
178
199
202
192
185
191
193
223
163
162
173
173
177
176
179
167
184
167
129
128
145
138
148
147
151
143
147
147
153
141
147
151
146
145
154
123
105
136
123
134
153
153
151
144
137
140
146
145
165
183
194
193
193
176
208
221
181
166
162
154
171
157
169
164
167
174
174
168
152
151
148
150
155
143
145
143
147
147
137
149
138
144
142
118
101
137
129
107
127
147
153
145
139
133
140
158
182
188
193
200
179
180
211
220
191
141
156
160
161
158
169
164
170
163
158
173
156
148
150
146
147
149
145
147
138
144
134
143
144
142
143
123
101
134
131
135
117
122
146
161
158
168
172
181
190
198
200
193
169
201
211
217
208
147
102
146
170
162
172
177
173
162
170
183
171
150
149
146
147
138
144
143
141
141
132
142
139
141
143
131
106
126
93
41
85
122
120
151
155
168
173
170
176
191
192
173
183
205
213
214
211
183
45
41
61
103
140
169
169
150
150
173
160
147
143
151
141
146
147
143
143
129
124
142
143
137
140
76
53
31
29
26
62
147
120
134
145
156
158
140
128
158
152
154
186
210
212
212
209
150
41
40
43
40
43
56
83
118
118
133
129
127
125
118
114
113
107
107
108
101
100
101
91
67
36
27
27
25
28
24
41
147
148
125
113
125
121
94
85
116
167
196
200
206
210
209
207
99
39
34
39
39
33
39
34
45
63
88
140
108
114
114
117
113
111
110
124
112
95
60
32
26
27
27
24
25
25
23
30
142
152
151
125
106
105
126
166
189
192
199
199
204
208
208
201
60
36
31
38
32
29
31
34
30
42
38
41
128
140
138
136
135
96
50
47
41
30
28
26
25
26
24
23
25
24
22
23
136
152
157
145
139
145
158
171
178
188
195
198
202
204
211
163
37
33
31
36
29
32
27
31
31
29
35
32
140
140
136
141
78
30
33
30
28
27
25
25
25
24
23
23
24
24
23
22
81
150
158
155
144
140
143
156
172
188
193
194
199
201
207
68
34
31
30
31
27
27
31
26
30
28
28
30
137
135
138
63
32
32
29
28
27
26
25
24
24
24
23
24
24
22
24
23
31
134
155
160
154
148
150
161
173
183
186
190
194
198
131
35
32
31
30
31
29
24
28
27
23
27
27
26
133
137
69
31
31
29
28
28
26
25
25
24
23
23
23
23
22
23
24
23
24
41
139
163
162
153
152
160
167
177
185
189
184
135
40
31
30
30
29
27
28
24
23
29
23
23
25
26
134
76
35
31
29
28
27
26
26
25
24
24
24
23
22
23
23
22
23
24
23
24
37
134
165
161
157
162
166
173
180
165
107
35
31
29
27
29
28
26
28
26
22
23
25
22
23
24
102
37
33
29
28
26
26
26
24
24
24
24
23
22
23
23
22
22
22
24
23
23
22
29
74
125
136
134
136
146
121
56
32
30
29
27
26
27
25
26
27
27
25
19
23
22
21
21
66
35
33
29
27
26
26
25
24
24
23
23
23
23
22
23
22
23
22
22
24
23
24
23
22
21
30
39
40
29
23
27
28
28
28
28
26
25
24
25
24
27
26
20
20
23
19
20
40
33
30
29
27
26
26
24
24
23
24
23
24
24
23
23
22
22
22
22
22
24
22
25
23
23
23
26
25
26
25
25
27
26
27
25
25
25
25
24
25
27
26
21
18
22
19
18
35
31
32
29
27
27
26
25
23
25
24
22
23
24
23
24
23
22
22
22
22
22
21
21
23
23
22
24
25
23
23
25
25
27
25
24
23
24
23
24
23
25
27
23
17
20
19
18
34
29
31
29
27
26
26
25
24
24
24
23
23
23
24
23
23
23
23
22
21
23
21
20
25
25
22
21
21
22
24
25
24
23
24
25
24
22
22
23
22
24
26
23
18
17
18
18
31
27
30
28
27
27
26
26
24
24
25
24
23
24
24
24
24
24
22
22
23
22
22
20
23
23
22
20
23
23
23
22
22
21
22
22
22
22
21
24
22
21
24
24
19
18
17
17
30
27
30
28
28
27
27
26
24
26
24
24
24
25
23
24
23
23
23
23
22
21
21
20
23
23
21
20
24
21
23
20
23
20
22
21
22
22
21
23
22
18
22
25
20
18
17
17
29
27
29
27
29
26
27
25
24
26
25
24
25
24
25
24
24
23
22
22
21
22
21
20
23
21
20
20
22
21
23
20
20
20
21
21
21
23
20
22
24
19
18
25
21
18
17
17
28
27
29
28
28
26
28
26
24
26
26
26
26
25
26
24
24
24
23
23
22
21
22
20
22
22
21
20
21
22
23
21
21
22
21
20
21
23
20
22
24
19
18
22
24
19
17
17
27
27
27
28
27
26
27
26
26
25
27
26
26
26
26
26
25
25
25
22
23
21
22
21
20
21
20
20
22
23
22
21
20
22
20
19
21
23
21
20
23
21
18
20
23
20
17
17
26
27
27
29
27
26
27
27
25
26
27
27
27
27
26
27
26
25
25
23
23
22
23
21
21
21
20
21
22
23
22
21
20
21
20
20
20
23
21
20
23
22
18
17
23
20
18
16
